<svg version="1.1" id="Layer_1" xmlns="http://www.w3.org/2000/svg" xmlns:xlink="http://www.w3.org/1999/xlink" x="0px" y="0px"
	 width="345" 
	 height="64"
	 viewBox="0 0 345 64" enable-background="new 0 0 345 64" xml:space="preserve">
<path fill="#FCFDFE" opacity="1.000000" stroke="none" 
	d="
M1.000000,32.000000 
	C1.000000,31.250000 1.000000,30.500000 1.377086,29.340168 
	C3.197912,29.172396 4.641652,29.414455 6.035914,29.648220 
	C10.381974,18.745317 14.913840,14.514515 22.756044,13.933625 
	C30.209774,13.381511 36.220268,15.992936 40.093922,22.483868 
	C45.571968,31.663216 42.821495,39.605736 35.468781,46.551731 
	C36.756214,47.962479 37.728798,49.028217 38.677475,50.067760 
	C48.320614,43.096474 51.105038,30.189686 45.332115,20.175253 
	C39.328888,9.761301 26.366833,5.447824 15.490958,9.933357 
	C7.999751,13.022955 4.263235,19.234844 1.000000,26.000000 
	C1.000000,17.677006 1.000000,9.354011 1.000000,1.000000 
	C110.020889,1.000000 219.041794,1.000000 328.457153,1.337740 
	C324.926483,7.834487 321.001343,13.993495 316.756897,20.001429 
	C314.480865,16.853552 312.586182,13.813074 310.526947,10.888436 
	C309.961151,10.084845 308.928131,9.139239 308.067108,9.095605 
	C304.239319,8.901617 300.396179,9.011475 296.035583,9.011475 
	C301.055359,16.908323 305.615051,24.081429 310.050781,31.569519 
	C305.511383,39.002800 301.095947,46.121094 296.494537,53.539234 
	C309.307159,54.781334 309.304108,54.779388 315.479248,45.053516 
	C316.012421,44.213737 316.621918,43.422440 317.464233,42.834213 
	C322.155029,50.373207 326.577515,57.686604 331.000000,65.000000 
	C220.999985,65.000000 110.999985,65.000000 1.000000,65.000000 
	C1.000000,56.249355 1.000000,47.593342 1.338579,38.569645 
	C2.467765,39.841911 3.179376,41.525715 4.061674,43.114750 
	C10.246042,54.252941 24.783474,58.374859 35.648766,51.754284 
	C26.988705,39.931126 15.316345,33.700058 1.000000,32.000000 
M81.093376,26.369617 
	C78.286880,22.245832 75.048317,18.344297 72.783714,13.941772 
	C69.979454,8.490147 65.884140,8.122621 60.778152,9.371871 
	C60.778152,24.213562 60.778152,38.939232 60.778152,53.705772 
	C63.895992,53.705772 66.667213,53.705772 70.054947,53.705772 
	C70.054947,44.843468 70.054947,36.201138 70.054947,26.227436 
	C75.924759,34.625462 81.356956,41.582882 85.848297,49.102287 
	C88.974838,54.336742 92.884865,54.578781 97.737915,53.543827 
	C97.737915,38.552940 97.737915,23.833740 97.737915,9.221664 
	C94.633713,9.221664 91.882149,9.221664 88.695770,9.221664 
	C88.695770,18.367662 88.695770,27.217834 88.695770,37.461845 
	C85.775589,33.180759 83.650284,30.064995 81.093376,26.369617 
M120.182465,9.069135 
	C119.802673,9.569026 119.262550,10.013183 119.066559,10.576970 
	C114.383606,24.047966 109.726440,37.527988 105.112068,51.022606 
	C104.830154,51.847046 104.940338,52.805561 104.859642,53.806450 
	C108.040535,53.806450 110.848885,53.806450 113.849411,53.806450 
	C114.319489,52.525101 114.999924,51.328011 115.180115,50.059841 
	C115.800385,45.694416 118.324837,44.563534 122.437805,44.928867 
	C126.389862,45.279915 130.397552,45.004745 134.277496,45.004745 
	C138.919571,54.709385 138.919571,54.709385 147.361649,53.358749 
	C143.492157,42.018475 139.652679,30.750027 135.801926,19.485428 
	C132.175034,8.875659 132.169815,8.877444 120.182465,9.069135 
M278.354370,34.998924 
	C284.390656,34.152447 279.912170,29.995937 281.520294,26.922714 
	C274.680969,26.922714 268.634857,26.922714 262.681213,26.922714 
	C262.681213,23.287426 262.681213,20.243158 262.681213,16.805664 
	C269.992126,16.805664 276.918091,16.805664 283.751160,16.805664 
	C283.751160,13.992332 283.751160,11.591364 283.751160,9.221153 
	C273.367828,9.221153 263.308624,9.221153 253.251038,9.221153 
	C253.251038,24.219015 253.251038,38.920334 253.251038,53.569572 
	C263.775269,53.569572 273.971680,53.569572 284.132843,53.569572 
	C284.132843,50.815365 284.132843,48.444469 284.132843,45.549606 
	C276.677155,45.549606 269.616211,45.549606 262.622620,45.549606 
	C262.622620,41.764820 262.622620,38.520058 262.622620,34.999989 
	C267.760345,34.999989 272.568604,34.999989 278.354370,34.998924 
M240.375870,29.925137 
	C242.704346,23.092440 245.032837,16.259741 247.472626,9.100424 
	C245.770218,9.016294 244.765625,9.075196 243.803314,8.900745 
	C239.043884,8.037930 236.868195,10.026314 235.606049,14.725549 
	C233.370758,23.048128 230.374832,31.167433 227.655090,39.357811 
	C227.230942,40.635094 226.584030,41.838394 225.705444,43.837402 
	C222.002884,32.773342 218.493973,22.739893 215.344391,12.594894 
	C214.425507,9.635118 213.062881,8.522772 210.085190,8.882862 
	C208.367401,9.090596 206.603912,8.920568 204.153687,8.920568 
	C208.575928,21.747942 212.765991,33.798191 216.880981,45.874020 
	C219.685699,54.104687 219.638992,53.996540 228.457474,54.011089 
	C231.257004,54.015713 232.539154,53.192913 233.376129,50.456612 
	C235.413559,43.795719 237.842087,37.254448 240.375870,29.925137 
M163.637421,53.939526 
	C165.373871,53.939526 167.110321,53.939526 169.143707,53.939526 
	C169.143707,41.263096 169.143707,29.351618 169.143707,16.946270 
	C173.826874,16.946270 178.226044,16.946270 182.645355,16.946270 
	C182.645355,14.042893 182.645355,11.651460 182.645355,9.094484 
	C170.278000,9.094484 158.204605,9.094484 145.890015,9.094484 
	C145.890015,11.700661 145.890015,14.129340 145.890015,17.100334 
	C150.440857,17.100334 154.830109,17.100334 159.443146,17.100334 
	C159.443146,28.433491 159.478455,39.227100 159.415848,50.020138 
	C159.401932,52.417938 159.470566,54.454407 163.637421,53.939526 
M189.409088,31.499878 
	C189.409088,38.910339 189.409088,46.320805 189.409088,53.694641 
	C192.976166,53.694641 195.741501,53.694641 198.684494,53.694641 
	C198.684494,38.709709 198.684494,23.990099 198.684494,9.246832 
	C195.520203,9.246832 192.638382,9.246832 189.409348,9.246832 
	C189.409348,16.560785 189.409348,23.530382 189.409088,31.499878 
M12.989713,31.009069 
	C15.763401,32.259212 15.644117,30.175625 16.266539,28.439276 
	C17.927382,23.806067 22.534763,21.441633 26.987244,22.655716 
	C31.520100,23.891712 34.742687,28.056444 33.680496,32.294594 
	C33.008400,34.976261 31.113113,37.351364 29.583055,40.206123 
	C30.496191,40.877647 31.755228,41.803547 32.929230,42.666916 
	C38.685669,37.723408 40.369934,32.754883 38.471619,27.043070 
	C36.595852,21.399101 31.403721,17.442003 25.445852,17.115692 
	C19.792444,16.806055 13.984332,20.114275 11.892077,25.389874 
	C11.285419,26.919558 12.089785,29.008844 12.989713,31.009069 
z"/>
<path fill="#FEFEFD" opacity="1.000000" stroke="none" 
	d="
M343.000000,1.000000 
	C343.993317,1.000000 344.986664,1.000000 346.000000,1.000000 
	C346.000000,21.687557 346.000000,42.375118 345.679138,63.412457 
	C338.557190,52.946350 331.756104,42.130466 325.153809,31.017429 
	C328.599304,25.518063 331.930847,20.366343 335.067230,15.098433 
	C337.824951,10.466512 340.364258,5.704543 343.000000,1.000000 
z"/>
<path fill="#FCC115" opacity="1.000000" stroke="none" 
	d="
M324.955017,31.314590 
	C331.756104,42.130466 338.557190,52.946350 345.679138,63.881115 
	C343.257629,64.333328 340.522125,64.753052 337.770599,64.970535 
	C335.840118,65.123131 333.887848,65.000000 331.472656,65.000000 
	C326.577515,57.686604 322.155029,50.373207 317.377197,42.512146 
	C314.988953,38.291752 312.956024,34.619026 311.377319,31.075371 
	C316.205994,31.241159 320.580505,31.277878 324.955017,31.314590 
z"/>
<path fill="#1F40BA" opacity="1.000000" stroke="none" 
	d="
M1.000000,26.375000 
	C4.263235,19.234844 7.999751,13.022955 15.490958,9.933357 
	C26.366833,5.447824 39.328888,9.761301 45.332115,20.175253 
	C51.105038,30.189686 48.320614,43.096474 38.677475,50.067760 
	C37.728798,49.028217 36.756214,47.962479 35.468781,46.551731 
	C42.821495,39.605736 45.571968,31.663216 40.093922,22.483868 
	C36.220268,15.992936 30.209774,13.381511 22.756044,13.933625 
	C14.913840,14.514515 10.381974,18.745317 6.035914,29.648220 
	C4.641652,29.414455 3.197912,29.172396 1.377086,28.965168 
	C1.000000,28.250000 1.000000,27.500000 1.000000,26.375000 
z"/>
<path fill="#193BB8" opacity="1.000000" stroke="none" 
	d="
M1.000000,32.428463 
	C15.316345,33.700058 26.988705,39.931126 35.648766,51.754284 
	C24.783474,58.374859 10.246042,54.252941 4.061674,43.114750 
	C3.179376,41.525715 2.467765,39.841911 1.338579,38.100983 
	C1.000000,36.285641 1.000000,34.571285 1.000000,32.428463 
z"/>
<path fill="#183AB6" opacity="1.000000" stroke="none" 
	d="
M325.153809,31.017435 
	C320.580505,31.277878 316.205994,31.241159 311.404785,31.101112 
	C310.978119,30.997786 311.044312,31.033831 311.096741,30.689514 
	C313.124847,26.947634 315.100555,23.550070 317.076233,20.152504 
	C321.001343,13.993495 324.926483,7.834487 328.925812,1.337740 
	C333.356903,1.000000 337.713806,1.000000 342.535339,1.000000 
	C340.364258,5.704543 337.824951,10.466512 335.067230,15.098433 
	C331.930847,20.366343 328.599304,25.518063 325.153809,31.017435 
z"/>
<path fill="#1B3CB8" opacity="1.000000" stroke="none" 
	d="
M81.309181,26.659424 
	C83.650284,30.064995 85.775589,33.180759 88.695770,37.461845 
	C88.695770,27.217834 88.695770,18.367662 88.695770,9.221664 
	C91.882149,9.221664 94.633713,9.221664 97.737915,9.221664 
	C97.737915,23.833740 97.737915,38.552940 97.737915,53.543827 
	C92.884865,54.578781 88.974838,54.336742 85.848297,49.102287 
	C81.356956,41.582882 75.924759,34.625462 70.054947,26.227436 
	C70.054947,36.201138 70.054947,44.843468 70.054947,53.705772 
	C66.667213,53.705772 63.895992,53.705772 60.778152,53.705772 
	C60.778152,38.939232 60.778152,24.213562 60.778152,9.371871 
	C65.884140,8.122621 69.979454,8.490147 72.783714,13.941772 
	C75.048317,18.344297 78.286880,22.245832 81.309181,26.659424 
z"/>
<path fill="#183AB7" opacity="1.000000" stroke="none" 
	d="
M120.615051,9.004387 
	C132.169815,8.877444 132.175034,8.875659 135.801926,19.485428 
	C139.652679,30.750027 143.492157,42.018475 147.361649,53.358749 
	C138.919571,54.709385 138.919571,54.709385 134.277496,45.004745 
	C130.397552,45.004745 126.389862,45.279915 122.437805,44.928867 
	C118.324837,44.563534 115.800385,45.694416 115.180115,50.059841 
	C114.999924,51.328011 114.319489,52.525101 113.849411,53.806450 
	C110.848885,53.806450 108.040535,53.806450 104.859642,53.806450 
	C104.940338,52.805561 104.830154,51.847046 105.112068,51.022606 
	C109.726440,37.527988 114.383606,24.047966 119.066559,10.576970 
	C119.262550,10.013183 119.802673,9.569026 120.615051,9.004387 
M120.266708,36.631321 
	C124.044334,36.631321 127.821960,36.631321 132.062027,36.631321 
	C130.074463,30.802858 128.136658,25.120291 125.777344,18.201698 
	C123.594810,24.942144 121.837463,30.369446 120.266708,36.631321 
z"/>
<path fill="#1638B7" opacity="1.000000" stroke="none" 
	d="
M277.865601,34.999458 
	C272.568604,34.999989 267.760345,34.999989 262.622620,34.999989 
	C262.622620,38.520058 262.622620,41.764820 262.622620,45.549606 
	C269.616211,45.549606 276.677155,45.549606 284.132843,45.549606 
	C284.132843,48.444469 284.132843,50.815365 284.132843,53.569572 
	C273.971680,53.569572 263.775269,53.569572 253.251038,53.569572 
	C253.251038,38.920334 253.251038,24.219015 253.251038,9.221153 
	C263.308624,9.221153 273.367828,9.221153 283.751160,9.221153 
	C283.751160,11.591364 283.751160,13.992332 283.751160,16.805664 
	C276.918091,16.805664 269.992126,16.805664 262.681213,16.805664 
	C262.681213,20.243158 262.681213,23.287426 262.681213,26.922714 
	C268.634857,26.922714 274.680969,26.922714 281.520294,26.922714 
	C279.912170,29.995937 284.390656,34.152447 277.865601,34.999458 
z"/>
<path fill="#1A3CB8" opacity="1.000000" stroke="none" 
	d="
M240.244476,30.295067 
	C237.842087,37.254448 235.413559,43.795719 233.376129,50.456612 
	C232.539154,53.192913 231.257004,54.015713 228.457474,54.011089 
	C219.638992,53.996540 219.685699,54.104687 216.880981,45.874020 
	C212.765991,33.798191 208.575928,21.747942 204.153687,8.920568 
	C206.603912,8.920568 208.367401,9.090596 210.085190,8.882862 
	C213.062881,8.522772 214.425507,9.635118 215.344391,12.594894 
	C218.493973,22.739893 222.002884,32.773342 225.705444,43.837402 
	C226.584030,41.838394 227.230942,40.635094 227.655090,39.357811 
	C230.374832,31.167433 233.370758,23.048128 235.606049,14.725549 
	C236.868195,10.026314 239.043884,8.037930 243.803314,8.900745 
	C244.765625,9.075196 245.770218,9.016294 247.472626,9.100424 
	C245.032837,16.259741 242.704346,23.092440 240.244476,30.295067 
z"/>
<path fill="#1A3CB8" opacity="1.000000" stroke="none" 
	d="
M163.186707,53.939346 
	C159.470566,54.454407 159.401932,52.417938 159.415848,50.020138 
	C159.478455,39.227100 159.443146,28.433491 159.443146,17.100334 
	C154.830109,17.100334 150.440857,17.100334 145.890015,17.100334 
	C145.890015,14.129340 145.890015,11.700661 145.890015,9.094484 
	C158.204605,9.094484 170.278000,9.094484 182.645355,9.094484 
	C182.645355,11.651460 182.645355,14.042893 182.645355,16.946270 
	C178.226044,16.946270 173.826874,16.946270 169.143707,16.946270 
	C169.143707,29.351618 169.143707,41.263096 169.143707,53.939526 
	C167.110321,53.939526 165.373871,53.939526 163.186707,53.939346 
z"/>
<path fill="#2243BB" opacity="1.000000" stroke="none" 
	d="
M189.409210,30.999928 
	C189.409348,23.530382 189.409348,16.560785 189.409348,9.246832 
	C192.638382,9.246832 195.520203,9.246832 198.684494,9.246832 
	C198.684494,23.990099 198.684494,38.709709 198.684494,53.694641 
	C195.741501,53.694641 192.976166,53.694641 189.409088,53.694641 
	C189.409088,46.320805 189.409088,38.910339 189.409210,30.999928 
z"/>
<path fill="#2142BA" opacity="1.000000" stroke="none" 
	d="
M12.618510,30.925333 
	C12.089785,29.008844 11.285419,26.919558 11.892077,25.389874 
	C13.984332,20.114275 19.792444,16.806055 25.445852,17.115692 
	C31.403721,17.442003 36.595852,21.399101 38.471619,27.043070 
	C40.369934,32.754883 38.685669,37.723408 32.929230,42.666916 
	C31.755228,41.803547 30.496191,40.877647 29.583055,40.206123 
	C31.113113,37.351364 33.008400,34.976261 33.680496,32.294594 
	C34.742687,28.056444 31.520100,23.891712 26.987244,22.655716 
	C22.534763,21.441633 17.927382,23.806067 16.266539,28.439276 
	C15.644117,30.175625 15.763401,32.259212 12.618510,30.925333 
z"/>
<path fill="#1B3CB7" opacity="1.000000" stroke="none" 
	d="
M310.950623,30.972042 
	C312.956024,34.619026 314.988953,38.291752 317.108917,42.286552 
	C316.621918,43.422440 316.012421,44.213737 315.479248,45.053516 
	C309.304108,54.779388 309.307159,54.781334 296.494537,53.539234 
	C301.095947,46.121094 305.511383,39.002800 310.274078,31.537670 
	C310.621368,31.190836 311.044312,31.033831 311.044312,31.033831 
	C311.044312,31.033831 310.978119,30.997786 310.950623,30.972042 
z"/>
<path fill="#FEC10F" opacity="1.000000" stroke="none" 
	d="
M311.096741,30.689514 
	C311.044312,31.033831 310.621368,31.190836 310.398071,31.222683 
	C305.615051,24.081429 301.055359,16.908323 296.035583,9.011475 
	C300.396179,9.011475 304.239319,8.901617 308.067108,9.095605 
	C308.928131,9.139239 309.961151,10.084845 310.526947,10.888436 
	C312.586182,13.813074 314.480865,16.853552 316.756897,20.001431 
	C315.100555,23.550070 313.124847,26.947634 311.096741,30.689514 
z"/>
<path fill="#F1F3FB" opacity="1.000000" stroke="none" 
	d="
M120.173416,36.214035 
	C121.837463,30.369446 123.594810,24.942144 125.777344,18.201698 
	C128.136658,25.120291 130.074463,30.802858 132.062027,36.631321 
	C127.821960,36.631321 124.044334,36.631321 120.173416,36.214035 
z"/>
</svg>